<?xml version="1.0" standalone="no"?>
<!DOCTYPE svg PUBLIC "-//W3C//DTD SVG 1.1//EN" "http://www.w3.org/Graphics/SVG/1.1/DTD/svg11.dtd">
<svg xmlns="http://www.w3.org/2000/svg" id="Layer_1" data-name="Layer 1" viewBox="0 0 32 32" width="32" height="32"><defs><style>.cls-1{fill:#192480;}.cls-2{fill:#f94c66;}.cls-3{fill:#e5d834;}</style></defs><path class="cls-1" d="M24.86,16.48l-.56.32a.39.39,0,0,1-.05-.2,8.41,8.41,0,0,0-6.46-7.51,8.21,8.21,0,0,0-1.91-.2,8.43,8.43,0,0,0-8.09,7.75,3.16,3.16,0,0,1,0,.32,2.39,2.39,0,0,1-.6.32,7.84,7.84,0,0,1,.24-2.13A9.3,9.3,0,0,1,9,11.82a8.93,8.93,0,0,1,2.78-2.45A8.48,8.48,0,0,1,15,8.31,9,9,0,0,1,24.86,16.48Z"/><polygon class="cls-1" points="7.24 16.96 7.16 17.28 7.24 17.63 12.06 15.59 12.85 15.82 12.85 17.68 13.82 16.63 14.98 16.01 15.31 16.54 14.97 18.66 15.31 18.66 16.13 18.26 16.74 17.06 17.29 16.14 18.5 15.81 18.94 16.28 19.28 17.03 19.28 17.89 19.4 18.73 22.84 18.28 24.56 17.2 25 16.96 24.86 16.43 23.62 13.56 23.2 12.57 22.88 12.33 21.98 11.15 20.34 9.84 18.2 8.94 16.51 8.78 14.25 8.83 12.54 9.45 11.29 10.21 10.22 11.15 9.26 11.97 8.09 14.23 7.61 16.26 7.24 16.96"/><polygon class="cls-2" points="16.13 23.73 16.13 23.74 16.12 23.73 16.13 23.73"/><path class="cls-3" d="M12.44,19.14h-.78c0-.08,0-.14,0-.21.14-.45.29-.91.42-1.37q.11-.37.18-.75a3.59,3.59,0,0,0,0-.47s0-.06,0-.09A.33.33,0,0,0,12,16a1.45,1.45,0,0,0-.36,0,5.34,5.34,0,0,0-1.23.39,18.42,18.42,0,0,0-1.67.82l-2,1.13a17.23,17.23,0,0,1-2,1,6.76,6.76,0,0,1-1.22.35,3.54,3.54,0,0,1-1.52,0,2.67,2.67,0,0,1-1.2-.68.78.78,0,0,1-.22-.36.39.39,0,0,1,.33-.52.56.56,0,0,1,.41.13,1.36,1.36,0,0,1,.12.12A2.37,2.37,0,0,0,2.82,19a3.75,3.75,0,0,0,1.37-.14,9.69,9.69,0,0,0,1.52-.58c.69-.33,1.36-.7,2-1.08A26.14,26.14,0,0,1,10.11,16a8.91,8.91,0,0,1,1.51-.5,2.56,2.56,0,0,1,.73-.09,2.09,2.09,0,0,1,.35,0,.28.28,0,0,1,.13,0,.62.62,0,0,1,.42.66,3.26,3.26,0,0,1-.12.75c0,.13-.07.26-.11.39s0,.06,0,.14l.12-.15.45-.63a4.29,4.29,0,0,1,.54-.59,2.54,2.54,0,0,1,.51-.37,1.11,1.11,0,0,1,.64-.14.54.54,0,0,1,.5.36.87.87,0,0,1,.06.45,3.53,3.53,0,0,1-.16.64c-.08.27-.18.53-.26.79s-.08.29-.11.43a.31.31,0,0,0,0,.19.09.09,0,0,0,.11.06.44.44,0,0,0,.15-.08,2.79,2.79,0,0,0,.48-.55s0-.11,0-.16a2.43,2.43,0,0,1,.1-.6,2.27,2.27,0,0,1,.95-1.26,1.73,1.73,0,0,1,1.13-.26.92.92,0,0,1,.78.56,2.07,2.07,0,0,1,.08.2.35.35,0,0,0,.06-.09c0-.14.07-.29.11-.43l0-.1a4.93,4.93,0,0,1,.86,0c0,.05,0,.1,0,.15l-.42,1.63a3.71,3.71,0,0,0-.11.58.36.36,0,0,0,.34.45,1.4,1.4,0,0,0,.5,0,6.55,6.55,0,0,0,1.23-.32,15.38,15.38,0,0,0,2.49-1.11c.68-.38,1.36-.76,2.05-1.1A11.77,11.77,0,0,1,28,15.26a5.13,5.13,0,0,1,1.17-.21,2.76,2.76,0,0,1,2.06.71l.16.16a.59.59,0,0,1,.1.17.41.41,0,0,1-.5.59.57.57,0,0,1-.23-.12.94.94,0,0,0-.1-.1A2.41,2.41,0,0,0,29,15.77a4.11,4.11,0,0,0-1.25.18,10,10,0,0,0-1.57.61c-.66.32-1.3.68-1.95,1a22,22,0,0,1-2.32,1.18,8.49,8.49,0,0,1-1.47.5,5,5,0,0,1-.56.09,1.75,1.75,0,0,1-.51,0,.76.76,0,0,1-.61-.72c0-.08,0-.15,0-.23s-.06,0-.08.05a1.49,1.49,0,0,1-1,.76,1.38,1.38,0,0,1-.67,0,1.16,1.16,0,0,1-.81-.67l-.09-.17h0l-.12.16a2.45,2.45,0,0,1-.71.61.71.71,0,0,1-.43.11.47.47,0,0,1-.4-.29.83.83,0,0,1-.06-.49,3.53,3.53,0,0,1,.16-.66c.08-.28.17-.56.25-.84a1.37,1.37,0,0,0,0-.28.42.42,0,0,0,0-.25.21.21,0,0,0-.18-.13.48.48,0,0,0-.23.07,1.4,1.4,0,0,0-.33.26,4.24,4.24,0,0,0-.6.73c-.33.49-.62,1-.91,1.52C12.54,19,12.49,19.05,12.44,19.14Zm4.65-1.33a1.47,1.47,0,0,0,0,.21,1,1,0,0,0,.11.39.56.56,0,0,0,.38.29.74.74,0,0,0,.6-.11,1.16,1.16,0,0,0,.28-.26,2.25,2.25,0,0,0,.48-1.46,1.58,1.58,0,0,0-.05-.38.55.55,0,0,0-.65-.45l-.1,0a1,1,0,0,0-.46.28A2.12,2.12,0,0,0,17.09,17.81Z"/></svg>