<svg xmlns="http://www.w3.org/2000/svg" xmlns:xlink="http://www.w3.org/1999/xlink" width="1080" zoomAndPan="magnify" viewBox="0 0 810 449.999984" height="600" preserveAspectRatio="xMidYMid meet" version="1.0"><defs><g/><clipPath id="3252a5bc99"><path d="M 2 192 L 809.742188 192 L 809.742188 316 L 2 316 Z M 2 192 " clip-rule="nonzero"/></clipPath></defs><path fill="#ffffff" d="M 635.109375 230.078125 L 620.53125 238.410156 C 619.621094 236.792969 619.1875 235.058594 619.230469 233.203125 C 619 230.339844 618.710938 227.480469 618.367188 224.628906 C 618.023438 221.777344 617.625 218.933594 617.167969 216.097656 C 616.710938 213.257812 616.199219 210.433594 615.632812 207.617188 C 615.066406 204.800781 614.441406 201.996094 613.765625 199.203125 C 613.089844 196.410156 612.355469 193.632812 611.570312 190.871094 C 610.78125 188.109375 609.941406 185.359375 609.046875 182.628906 C 608.152344 179.902344 607.203125 177.1875 606.203125 174.496094 C 605.199219 171.804688 604.144531 169.132812 603.039062 166.480469 C 601.929688 163.828125 600.773438 161.199219 599.5625 158.59375 C 598.351562 155.988281 597.089844 153.410156 595.777344 150.851562 C 594.46875 148.296875 593.105469 145.765625 591.695312 143.265625 C 590.28125 140.761719 588.820312 138.289062 587.3125 135.84375 C 585.804688 133.398438 584.246094 130.984375 582.644531 128.601562 C 581.039062 126.21875 579.390625 123.867188 577.691406 121.546875 C 575.996094 119.230469 574.253906 116.945312 572.46875 114.695312 C 570.683594 112.445312 568.851562 110.230469 566.980469 108.050781 C 565.105469 105.875 563.191406 103.734375 561.230469 101.628906 C 559.273438 99.527344 557.277344 97.464844 555.238281 95.441406 C 553.199219 93.417969 551.121094 91.433594 549.003906 89.492188 C 546.886719 87.546875 544.730469 85.648438 542.539062 83.792969 C 540.347656 81.933594 538.117188 80.121094 535.855469 78.351562 C 533.59375 76.582031 531.296875 74.855469 528.964844 73.175781 C 526.632812 71.496094 524.269531 69.863281 521.875 68.277344 C 519.476562 66.691406 517.050781 65.152344 514.597656 63.664062 C 512.140625 62.171875 509.65625 60.730469 507.144531 59.335938 C 504.628906 57.945312 502.089844 56.601562 499.527344 55.308594 C 496.960938 54.015625 494.371094 52.773438 491.753906 51.582031 C 489.140625 50.390625 486.503906 49.253906 483.84375 48.164062 C 481.183594 47.078125 478.503906 46.042969 475.804688 45.0625 C 473.105469 44.078125 470.386719 43.152344 467.648438 42.277344 C 464.914062 41.402344 462.160156 40.582031 459.390625 39.816406 C 456.621094 39.046875 453.839844 38.335938 451.042969 37.679688 C 434.671875 33.992188 418.097656 32.257812 401.316406 32.472656 C 397.992188 32.597656 394.675781 32.796875 391.363281 33.070312 C 388.050781 33.34375 384.746094 33.691406 381.449219 34.117188 C 378.15625 34.542969 374.867188 35.039062 371.59375 35.613281 C 368.320312 36.1875 365.0625 36.835938 361.816406 37.554688 C 358.574219 38.277344 355.347656 39.074219 352.136719 39.941406 C 348.929688 40.808594 345.742188 41.75 342.578125 42.761719 C 339.410156 43.777344 336.269531 44.859375 333.152344 46.015625 C 330.039062 47.171875 326.949219 48.398438 323.886719 49.691406 C 320.828125 50.988281 317.796875 52.355469 314.796875 53.789062 C 311.800781 55.222656 308.835938 56.722656 305.90625 58.289062 C 302.972656 59.859375 300.082031 61.492188 297.222656 63.191406 C 294.367188 64.890625 291.550781 66.65625 288.777344 68.484375 C 286 70.3125 283.265625 72.203125 280.578125 74.152344 C 277.886719 76.105469 275.242188 78.117188 272.640625 80.191406 C 270.042969 82.261719 267.492188 84.390625 264.992188 86.578125 C 262.488281 88.765625 260.039062 91.011719 257.636719 93.308594 C 255.238281 95.609375 252.890625 97.960938 250.597656 100.367188 C 248.304688 102.773438 246.066406 105.230469 243.886719 107.738281 C 241.703125 110.246094 239.578125 112.800781 237.515625 115.40625 C 235.449219 118.011719 233.441406 120.660156 231.496094 123.355469 C 229.554688 126.050781 227.667969 128.789062 225.847656 131.570312 C 224.027344 134.347656 222.269531 137.171875 220.578125 140.03125 C 218.886719 142.890625 217.257812 145.789062 215.699219 148.722656 C 214.136719 151.65625 212.644531 154.625 211.21875 157.628906 C 209.792969 160.628906 208.433594 163.664062 207.144531 166.726562 C 205.859375 169.792969 204.640625 172.882812 203.492188 176.003906 C 202.34375 179.121094 201.265625 182.265625 200.261719 185.433594 C 199.257812 188.601562 198.324219 191.792969 197.464844 195 C 196.605469 198.210938 195.816406 201.441406 195.105469 204.6875 C 194.390625 207.933594 193.75 211.195312 193.1875 214.46875 C 192.621094 217.746094 192.128906 221.03125 191.714844 224.328125 C 191.296875 227.628906 190.957031 230.933594 190.691406 234.246094 C 190.832031 237.023438 190.832031 239.800781 190.691406 242.578125 C 185.882812 246.101562 180.675781 248.878906 175.070312 250.90625 C 174.601562 232.136719 176.683594 213.652344 181.320312 195.453125 C 185.175781 179.785156 190.542969 164.65625 197.421875 150.0625 C 204.304688 135.46875 212.5625 121.699219 222.195312 108.757812 C 231.894531 95.710938 242.84375 83.816406 255.039062 73.066406 C 267.234375 62.320312 280.410156 52.953125 294.570312 44.96875 C 307.472656 37.597656 320.980469 31.585938 335.09375 26.941406 C 349.210938 22.292969 363.644531 19.105469 378.40625 17.371094 C 382.25 16.988281 386.101562 16.699219 389.960938 16.507812 C 393.820312 16.3125 397.683594 16.214844 401.546875 16.214844 C 405.414062 16.210938 409.273438 16.304688 413.132812 16.492188 C 416.996094 16.679688 420.847656 16.964844 424.691406 17.34375 C 428.539062 17.722656 432.371094 18.199219 436.195312 18.769531 C 440.015625 19.335938 443.824219 20 447.613281 20.757812 C 451.402344 21.515625 455.171875 22.367188 458.917969 23.308594 C 462.664062 24.253906 466.386719 25.289062 470.082031 26.417969 C 473.78125 27.546875 477.445312 28.765625 481.082031 30.074219 C 484.71875 31.382812 488.316406 32.78125 491.886719 34.269531 C 495.453125 35.757812 498.980469 37.332031 502.46875 38.992188 C 505.957031 40.65625 509.402344 42.402344 512.804688 44.234375 C 516.207031 46.066406 519.5625 47.984375 522.871094 49.980469 C 526.175781 51.980469 529.433594 54.058594 532.636719 56.21875 C 535.84375 58.378906 538.992188 60.617188 542.085938 62.933594 C 545.179688 65.246094 548.214844 67.636719 551.191406 70.101562 C 554.164062 72.570312 557.078125 75.105469 559.929688 77.714844 C 562.777344 80.328125 565.5625 83.003906 568.28125 85.753906 C 570.996094 88.5 573.644531 91.3125 576.222656 94.191406 C 578.800781 97.070312 581.308594 100.011719 583.742188 103.011719 C 586.171875 106.015625 588.53125 109.074219 590.8125 112.195312 C 593.09375 115.3125 595.296875 118.488281 597.421875 121.714844 C 599.546875 124.945312 601.589844 128.222656 603.550781 131.550781 C 605.511719 134.882812 607.390625 138.257812 609.1875 141.679688 C 610.984375 145.101562 612.691406 148.566406 614.316406 152.070312 C 615.941406 155.578125 617.476562 159.125 618.925781 162.707031 C 620.371094 166.289062 621.730469 169.90625 623 173.554688 C 624.269531 177.207031 625.449219 180.882812 626.535156 184.59375 C 627.625 188.300781 628.617188 192.035156 629.523438 195.792969 C 630.425781 199.550781 631.234375 203.328125 631.949219 207.125 C 632.664062 210.921875 633.289062 214.734375 633.8125 218.5625 C 634.339844 222.390625 634.773438 226.230469 635.109375 230.078125 Z M 635.109375 230.078125 " fill-opacity="1" fill-rule="nonzero"/><path fill="#ffffff" d="M 176.371094 242.578125 L 174.289062 250.90625 L 176.371094 260.019531 L 301.863281 206.910156 L 322.429688 212.898438 L 322.429688 261.320312 L 347.683594 233.984375 L 377.882812 217.84375 L 386.476562 231.640625 L 377.625 286.835938 L 386.476562 286.835938 L 407.824219 276.421875 L 423.707031 245.179688 L 438.023438 221.226562 L 469.527344 212.636719 L 480.984375 224.871094 L 489.835938 244.398438 L 489.835938 266.789062 L 492.960938 288.660156 L 582.519531 276.941406 L 627.300781 248.824219 L 638.757812 242.578125 L 635.109375 228.777344 L 602.828125 154.058594 L 591.894531 128.28125 L 583.5625 122.035156 L 560.128906 91.3125 L 517.433594 57.207031 L 461.71875 33.773438 L 417.71875 29.609375 L 358.878906 30.910156 L 314.359375 47.054688 L 281.8125 66.839844 L 253.957031 91.3125 L 228.964844 112.660156 L 198.5 171.5 L 186.003906 224.351562 Z M 176.371094 242.578125 " fill-opacity="1" fill-rule="nonzero"/><g clip-path="url(#3252a5bc99)"><path fill="#e5d834" d="M 311.753906 299.332031 L 291.449219 299.332031 C 291.449219 297.25 291.449219 295.6875 291.449219 293.867188 C 295.09375 282.148438 298.996094 270.175781 302.382812 258.199219 C 304.292969 251.777344 305.851562 245.265625 307.070312 238.671875 C 307.335938 234.59375 307.335938 230.515625 307.070312 226.433594 C 307.070312 226.433594 307.070312 224.871094 307.070312 224.09375 C 306.882812 223.28125 306.582031 222.511719 306.171875 221.785156 C 305.757812 221.058594 305.253906 220.410156 304.652344 219.832031 C 304.050781 219.253906 303.378906 218.773438 302.640625 218.390625 C 301.898438 218.007812 301.117188 217.738281 300.300781 217.582031 C 297.175781 217.191406 294.050781 217.191406 290.925781 217.582031 C 279.839844 219.667969 269.164062 223.054688 258.902344 227.738281 C 244.050781 234.121094 229.558594 241.238281 215.425781 249.085938 L 163.355469 278.503906 C 146.5625 288.3125 129.207031 296.992188 111.285156 304.539062 C 100.984375 308.578125 90.394531 311.613281 79.519531 313.652344 C 73.003906 315.085938 66.40625 315.800781 59.734375 315.800781 C 53.0625 315.800781 46.464844 315.085938 39.949219 313.652344 C 34.054688 312.121094 28.460938 309.855469 23.164062 306.851562 C 17.867188 303.851562 13.046875 300.214844 8.707031 295.949219 C 5.917969 293.359375 4.007812 290.238281 2.976562 286.578125 C 2.847656 286.214844 2.738281 285.84375 2.648438 285.46875 C 2.5625 285.09375 2.496094 284.714844 2.449219 284.332031 C 2.40625 283.949219 2.382812 283.566406 2.382812 283.179688 C 2.378906 282.792969 2.398438 282.410156 2.441406 282.027344 C 2.484375 281.644531 2.550781 281.265625 2.636719 280.886719 C 2.71875 280.511719 2.828125 280.144531 2.957031 279.777344 C 3.082031 279.414062 3.230469 279.058594 3.398438 278.714844 C 3.566406 278.367188 3.753906 278.03125 3.960938 277.703125 C 4.167969 277.378906 4.390625 277.066406 4.632812 276.765625 C 4.875 276.46875 5.136719 276.183594 5.410156 275.910156 C 5.683594 275.640625 5.972656 275.386719 6.277344 275.148438 C 6.582031 274.910156 6.898438 274.691406 7.226562 274.492188 C 7.554688 274.289062 7.894531 274.105469 8.242188 273.945312 C 8.589844 273.78125 8.949219 273.636719 9.3125 273.515625 C 9.679688 273.394531 10.050781 273.292969 10.429688 273.210938 C 10.804688 273.132812 11.1875 273.074219 11.570312 273.039062 C 13.503906 272.867188 15.394531 273.078125 17.246094 273.664062 C 19.09375 274.25 20.761719 275.171875 22.242188 276.421875 C 23.351562 277.398438 24.390625 278.441406 25.367188 279.546875 C 27.824219 281.820312 30.449219 283.882812 33.242188 285.730469 C 36.03125 287.578125 38.957031 289.1875 42.011719 290.5625 C 45.0625 291.933594 48.207031 293.050781 51.445312 293.910156 C 54.679688 294.769531 57.964844 295.363281 61.296875 295.6875 C 73.414062 296.695312 85.300781 295.480469 96.964844 292.042969 C 110.578125 288.121094 123.769531 283.089844 136.539062 276.941406 C 154.503906 268.351562 171.945312 258.71875 188.609375 248.824219 C 208.902344 237.339844 229.730469 226.925781 251.09375 217.582031 C 263.808594 212.070312 276.914062 207.730469 290.40625 204.566406 C 296.628906 202.863281 302.964844 202.082031 309.410156 202.222656 C 312.449219 201.96875 315.488281 201.96875 318.523438 202.222656 C 319.652344 201.953125 320.78125 201.953125 321.910156 202.222656 C 322.78125 202.511719 323.625 202.875 324.4375 203.3125 C 325.246094 203.746094 326.015625 204.246094 326.742188 204.8125 C 327.46875 205.378906 328.140625 206.003906 328.757812 206.683594 C 329.378906 207.367188 329.933594 208.09375 330.429688 208.871094 C 330.921875 209.648438 331.347656 210.460938 331.703125 211.3125 C 332.058594 212.160156 332.335938 213.035156 332.542969 213.929688 C 332.75 214.828125 332.878906 215.734375 332.925781 216.65625 C 332.976562 217.574219 332.949219 218.492188 332.84375 219.40625 C 332.566406 226.035156 331.523438 232.546875 329.71875 238.933594 C 329.71875 242.316406 327.898438 245.699219 326.855469 249.085938 C 325.8125 252.46875 326.855469 250.648438 326.855469 252.730469 L 329.980469 248.824219 L 341.695312 232.421875 C 345.902344 226.863281 350.589844 221.742188 355.753906 217.0625 C 359.777344 213.296875 364.203125 210.085938 369.03125 207.429688 C 371.5625 205.996094 374.246094 204.972656 377.089844 204.351562 C 379.929688 203.726562 382.796875 203.539062 385.695312 203.785156 C 386.40625 203.796875 387.113281 203.863281 387.816406 203.980469 C 388.519531 204.101562 389.210938 204.273438 389.886719 204.5 C 390.5625 204.722656 391.21875 204.996094 391.851562 205.320312 C 392.488281 205.644531 393.09375 206.015625 393.671875 206.433594 C 394.25 206.847656 394.792969 207.304688 395.300781 207.804688 C 395.808594 208.304688 396.277344 208.839844 396.707031 209.410156 C 397.132812 209.980469 397.515625 210.578125 397.851562 211.207031 C 398.1875 211.835938 398.476562 212.484375 398.710938 213.15625 C 400.289062 216.921875 400.808594 220.828125 400.273438 224.871094 C 399.40625 230.558594 398.019531 236.113281 396.109375 241.535156 C 394.027344 248.566406 391.421875 255.335938 389.339844 262.101562 C 387.257812 268.871094 387.257812 269.652344 386.476562 273.296875 C 385.945312 274.945312 385.945312 276.597656 386.476562 278.246094 C 386.566406 278.535156 386.707031 278.800781 386.902344 279.035156 C 387.09375 279.269531 387.324219 279.460938 387.589844 279.605469 C 387.859375 279.753906 388.144531 279.84375 388.445312 279.878906 C 388.75 279.910156 389.046875 279.886719 389.339844 279.808594 C 390.777344 279.371094 392.078125 278.675781 393.246094 277.722656 C 398.039062 273.5 402.207031 268.726562 405.742188 263.40625 C 405.742188 263.40625 405.742188 260.542969 405.742188 259.238281 C 405.953125 253.921875 406.820312 248.714844 408.34375 243.617188 C 409.351562 240.261719 410.644531 237.015625 412.230469 233.890625 C 413.8125 230.761719 415.660156 227.796875 417.769531 224.996094 C 419.878906 222.199219 422.222656 219.609375 424.792969 217.226562 C 427.363281 214.84375 430.125 212.707031 433.078125 210.8125 C 435.246094 209.429688 437.515625 208.242188 439.886719 207.246094 C 442.257812 206.253906 444.699219 205.46875 447.203125 204.890625 C 449.710938 204.316406 452.246094 203.957031 454.816406 203.8125 C 457.382812 203.671875 459.945312 203.75 462.5 204.042969 C 463.59375 204.125 464.675781 204.28125 465.75 204.511719 C 466.824219 204.742188 467.875 205.042969 468.90625 205.417969 C 469.9375 205.792969 470.941406 206.234375 471.910156 206.746094 C 472.882812 207.257812 473.8125 207.835938 474.703125 208.476562 C 475.597656 209.117188 476.441406 209.8125 477.234375 210.570312 C 478.03125 211.324219 478.769531 212.132812 479.457031 212.992188 C 480.140625 213.847656 480.761719 214.75 481.324219 215.691406 C 481.886719 216.636719 482.378906 217.613281 482.804688 218.625 C 483.589844 220.324219 484.285156 222.058594 484.886719 223.832031 C 485.53125 223.132812 486.050781 222.351562 486.449219 221.488281 C 486.449219 217.84375 488.273438 213.9375 489.3125 210.292969 L 489.3125 207.691406 C 496.777344 207.035156 504.242188 207.035156 511.703125 207.691406 C 511.703125 208.992188 511.703125 210.292969 511.703125 211.59375 L 500.769531 254.03125 C 499.414062 258.988281 498.457031 264.023438 497.90625 269.132812 C 497.816406 269.472656 497.75 269.816406 497.699219 270.167969 C 497.652344 270.515625 497.621094 270.863281 497.613281 271.214844 C 497.601562 271.566406 497.613281 271.917969 497.640625 272.269531 C 497.671875 272.621094 497.71875 272.96875 497.789062 273.3125 C 497.859375 273.660156 497.945312 274 498.054688 274.332031 C 498.160156 274.667969 498.285156 274.996094 498.429688 275.316406 C 498.574219 275.636719 498.734375 275.949219 498.914062 276.253906 C 499.09375 276.554688 499.289062 276.847656 499.503906 277.128906 C 499.714844 277.410156 499.941406 277.675781 500.183594 277.933594 C 500.425781 278.1875 500.683594 278.429688 500.953125 278.65625 C 501.21875 278.882812 501.5 279.089844 501.796875 279.285156 C 502.089844 279.480469 502.390625 279.660156 502.703125 279.820312 C 503.015625 279.980469 503.339844 280.121094 503.667969 280.246094 C 503.996094 280.371094 504.332031 280.476562 504.671875 280.5625 C 505.015625 280.648438 505.359375 280.714844 505.707031 280.765625 C 506.054688 280.8125 506.40625 280.839844 506.757812 280.847656 C 511.097656 281.636719 515.4375 281.636719 519.777344 280.847656 C 530.71875 279.113281 541.394531 276.335938 551.796875 272.515625 C 574.265625 264.808594 595.875 255.175781 616.625 243.617188 C 634.332031 233.726562 652.035156 223.832031 670 214.980469 C 685.167969 208.152344 700.789062 202.597656 716.863281 198.316406 C 726.800781 195.308594 736.957031 193.488281 747.324219 192.851562 C 749.746094 192.671875 752.175781 192.613281 754.605469 192.679688 C 757.039062 192.75 759.460938 192.9375 761.871094 193.25 C 764.28125 193.5625 766.671875 194 769.039062 194.554688 C 771.40625 195.109375 773.742188 195.785156 776.039062 196.574219 C 778.339844 197.367188 780.59375 198.273438 782.800781 199.296875 C 785.007812 200.316406 787.15625 201.449219 789.25 202.6875 C 791.339844 203.925781 793.367188 205.269531 795.320312 206.714844 C 797.277344 208.160156 799.15625 209.699219 800.953125 211.335938 L 805.121094 215.5 C 806.238281 216.828125 807.105469 218.304688 807.722656 219.925781 C 808.28125 220.878906 808.679688 221.894531 808.921875 222.972656 C 809.164062 224.050781 809.238281 225.140625 809.140625 226.242188 C 809.046875 227.339844 808.785156 228.402344 808.359375 229.421875 C 807.933594 230.441406 807.367188 231.371094 806.652344 232.214844 C 805.9375 233.054688 805.113281 233.769531 804.175781 234.359375 C 803.242188 234.945312 802.238281 235.375 801.167969 235.652344 C 800.097656 235.925781 799.011719 236.03125 797.910156 235.96875 C 796.804688 235.910156 795.738281 235.679688 794.707031 235.285156 C 792.46875 234.710938 790.472656 233.671875 788.71875 232.164062 C 787.917969 231.230469 787.046875 230.363281 786.113281 229.558594 C 783.253906 226.75 780.152344 224.238281 776.808594 222.027344 C 773.46875 219.8125 769.945312 217.933594 766.242188 216.398438 C 762.542969 214.859375 758.726562 213.683594 754.800781 212.878906 C 750.875 212.070312 746.90625 211.640625 742.898438 211.59375 C 731.804688 211.46875 720.957031 213.03125 710.351562 216.28125 C 696.28125 220.421875 682.65625 225.71875 669.476562 232.164062 C 652.292969 240.492188 635.632812 249.867188 618.707031 258.199219 C 599.183594 269.632812 579.046875 279.871094 558.308594 288.917969 C 545.949219 294.429688 533.191406 298.769531 520.035156 301.9375 C 515.21875 302.996094 510.359375 303.773438 505.457031 304.28125 C 501.03125 304.933594 496.605469 304.933594 492.179688 304.28125 C 491.09375 304.0625 490.03125 303.753906 489 303.359375 C 487.964844 302.964844 486.972656 302.484375 486.019531 301.921875 C 485.066406 301.359375 484.164062 300.722656 483.320312 300.007812 C 482.472656 299.292969 481.691406 298.515625 480.976562 297.671875 C 480.261719 296.828125 479.621094 295.929688 479.054688 294.976562 C 478.488281 294.023438 478.007812 293.03125 477.609375 292 C 477.210938 290.964844 476.902344 289.90625 476.683594 288.820312 C 476.460938 287.738281 476.332031 286.640625 476.296875 285.535156 C 476.296875 283.453125 476.296875 281.628906 476.296875 279.546875 C 476.296875 277.464844 474.734375 279.546875 474.214844 280.847656 C 472.894531 283.347656 471.324219 285.671875 469.496094 287.824219 C 467.667969 289.980469 465.632812 291.910156 463.382812 293.621094 C 461.132812 295.328125 458.726562 296.773438 456.164062 297.957031 C 453.601562 299.140625 450.9375 300.035156 448.179688 300.636719 C 445.316406 301.351562 442.410156 301.710938 439.457031 301.710938 C 436.503906 301.710938 433.597656 301.351562 430.734375 300.636719 C 428.414062 300.113281 426.1875 299.332031 424.050781 298.285156 C 421.917969 297.238281 419.933594 295.953125 418.101562 294.4375 C 416.269531 292.925781 414.640625 291.214844 413.210938 289.316406 C 411.78125 287.414062 410.59375 285.375 409.648438 283.191406 L 407.304688 278.765625 L 404.179688 282.929688 C 399.046875 289.425781 392.886719 294.71875 385.695312 298.8125 C 384.03125 299.875 382.242188 300.652344 380.328125 301.140625 C 378.414062 301.632812 376.46875 301.808594 374.5 301.675781 C 373.367188 301.59375 372.265625 301.355469 371.199219 300.964844 C 370.132812 300.574219 369.140625 300.046875 368.21875 299.378906 C 367.300781 298.714844 366.488281 297.933594 365.785156 297.042969 C 365.085938 296.148438 364.515625 295.175781 364.085938 294.125 C 363.183594 292.128906 362.601562 290.042969 362.332031 287.867188 C 362.066406 285.691406 362.128906 283.527344 362.523438 281.371094 C 363.359375 275.507812 364.746094 269.78125 366.6875 264.1875 C 368.773438 256.894531 371.113281 249.605469 373.199219 242.316406 C 373.445312 239.886719 373.445312 237.457031 373.199219 235.027344 C 373.875 232.855469 373.875 230.6875 373.199219 228.519531 C 373.003906 228.046875 372.75 227.609375 372.433594 227.207031 C 372.117188 226.804688 371.753906 226.453125 371.339844 226.15625 C 370.925781 225.855469 370.476562 225.621094 369.996094 225.445312 C 369.515625 225.273438 369.019531 225.167969 368.511719 225.132812 C 366.359375 225.222656 364.363281 225.832031 362.523438 226.957031 C 359.316406 228.777344 356.453125 231.035156 353.929688 233.726562 C 348.015625 239.476562 342.808594 245.8125 338.308594 252.730469 C 329.71875 265.488281 322.167969 278.765625 314.617188 292.304688 C 314.359375 295.6875 313.054688 296.992188 311.753906 299.332031 Z M 432.816406 264.707031 C 432.6875 266.527344 432.6875 268.351562 432.816406 270.175781 C 433.074219 273.757812 434.027344 277.140625 435.683594 280.328125 C 436.175781 281.28125 436.769531 282.171875 437.460938 282.996094 C 438.152344 283.820312 438.925781 284.558594 439.78125 285.210938 C 440.636719 285.863281 441.554688 286.414062 442.53125 286.867188 C 443.507812 287.316406 444.523438 287.652344 445.574219 287.878906 C 446.902344 288.207031 448.253906 288.394531 449.621094 288.4375 C 450.988281 288.480469 452.347656 288.378906 453.695312 288.128906 C 455.042969 287.882812 456.347656 287.496094 457.613281 286.972656 C 458.875 286.445312 460.070312 285.792969 461.195312 285.015625 C 464.003906 283.164062 466.433594 280.90625 468.484375 278.246094 C 470.59375 275.5625 472.453125 272.71875 474.066406 269.710938 C 475.675781 266.703125 477.015625 263.582031 478.082031 260.339844 C 479.144531 257.097656 479.921875 253.789062 480.410156 250.414062 C 480.898438 247.035156 481.089844 243.644531 480.984375 240.234375 C 480.953125 236.882812 480.519531 233.585938 479.679688 230.339844 C 479.523438 229.394531 479.277344 228.46875 478.933594 227.574219 C 478.59375 226.675781 478.164062 225.820312 477.652344 225.011719 C 477.136719 224.199219 476.550781 223.445312 475.882812 222.753906 C 475.21875 222.0625 474.492188 221.441406 473.703125 220.894531 C 472.914062 220.347656 472.078125 219.886719 471.195312 219.507812 C 470.3125 219.128906 469.402344 218.84375 468.460938 218.648438 C 467.523438 218.453125 466.570312 218.351562 465.609375 218.347656 C 464.652344 218.34375 463.699219 218.4375 462.757812 218.625 L 460.15625 218.625 C 457.863281 219.269531 455.699219 220.210938 453.667969 221.449219 C 451.632812 222.6875 449.804688 224.175781 448.179688 225.914062 C 445.703125 228.496094 443.5 231.289062 441.566406 234.300781 C 439.632812 237.308594 438.007812 240.476562 436.691406 243.804688 C 435.375 247.128906 434.390625 250.550781 433.738281 254.066406 C 433.085938 257.582031 432.78125 261.128906 432.816406 264.707031 Z M 432.816406 264.707031 " fill-opacity="1" fill-rule="nonzero"/></g><g fill="#ffffff" fill-opacity="1"><g transform="translate(6.720223, 416.778743)"><g><path d="M 62.859375 0.328125 L 15.515625 -46.6875 L 15.328125 -46.6875 C 15.410156 -42.757812 15.492188 -39.132812 15.578125 -35.8125 C 15.628906 -34.414062 15.664062 -33.007812 15.6875 -31.59375 C 15.707031 -30.175781 15.726562 -28.863281 15.75 -27.65625 C 15.769531 -26.457031 15.789062 -25.410156 15.8125 -24.515625 C 15.832031 -23.628906 15.84375 -22.988281 15.84375 -22.59375 L 15.84375 0 L 7.859375 0 L 7.859375 -67.515625 L 13.8125 -67.515625 L 61.234375 -20.625 L 61.296875 -20.625 C 61.203125 -24.25 61.132812 -27.632812 61.09375 -30.78125 C 61.09375 -32.132812 61.082031 -33.5 61.0625 -34.875 C 61.039062 -36.25 61.019531 -37.554688 61 -38.796875 C 60.976562 -40.046875 60.96875 -41.191406 60.96875 -42.234375 C 60.96875 -43.285156 60.96875 -44.140625 60.96875 -44.796875 L 60.96875 -67.0625 L 68.953125 -67.0625 L 68.953125 0.328125 Z M 62.859375 0.328125 "/></g></g><g transform="translate(83.533763, 416.778743)"><g><path d="M 72.484375 -33.796875 C 72.484375 -28.460938 71.773438 -23.65625 70.359375 -19.375 C 68.941406 -15.101562 66.8125 -11.457031 63.96875 -8.4375 C 61.132812 -5.425781 57.597656 -3.113281 53.359375 -1.5 C 49.128906 0.113281 44.195312 0.921875 38.5625 0.921875 C 32.800781 0.921875 27.867188 0.09375 23.765625 -1.5625 C 19.660156 -3.226562 16.273438 -5.578125 13.609375 -8.609375 C 10.953125 -11.640625 9 -15.285156 7.75 -19.546875 C 6.507812 -23.804688 5.890625 -28.554688 5.890625 -33.796875 C 5.890625 -39.023438 6.53125 -43.734375 7.8125 -47.921875 C 9.101562 -52.117188 11.082031 -55.691406 13.75 -58.640625 C 16.414062 -61.585938 19.8125 -63.847656 23.9375 -65.421875 C 28.0625 -66.992188 32.984375 -67.78125 38.703125 -67.78125 C 44.328125 -67.78125 49.242188 -66.992188 53.453125 -65.421875 C 57.671875 -63.847656 61.1875 -61.585938 64 -58.640625 C 66.820312 -55.691406 68.941406 -52.117188 70.359375 -47.921875 C 71.773438 -43.734375 72.484375 -39.023438 72.484375 -33.796875 Z M 58.078125 -33.71875 C 58.078125 -37.820312 57.707031 -41.488281 56.96875 -44.71875 C 56.226562 -47.957031 55.070312 -50.707031 53.5 -52.96875 C 51.925781 -55.238281 49.914062 -56.972656 47.46875 -58.171875 C 45.03125 -59.378906 42.109375 -59.984375 38.703125 -59.984375 C 35.734375 -59.984375 32.972656 -59.675781 30.421875 -59.0625 C 27.867188 -58.457031 25.847656 -57.585938 24.359375 -56.453125 C 22.878906 -55.316406 21.800781 -52.859375 21.125 -49.078125 C 20.445312 -45.304688 20.109375 -40.1875 20.109375 -33.71875 C 20.109375 -29.707031 20.410156 -26.0625 21.015625 -22.78125 C 21.628906 -19.507812 22.644531 -16.695312 24.0625 -14.34375 C 25.476562 -11.988281 27.363281 -10.164062 29.71875 -8.875 C 32.082031 -7.582031 35.03125 -6.9375 38.5625 -6.9375 C 42.1875 -6.9375 45.1875 -7.253906 47.5625 -7.890625 C 49.945312 -8.523438 51.945312 -9.363281 53.5625 -10.40625 C 54.300781 -10.882812 54.953125 -11.851562 55.515625 -13.3125 C 56.085938 -14.78125 56.5625 -16.5625 56.9375 -18.65625 C 57.3125 -20.757812 57.59375 -23.109375 57.78125 -25.703125 C 57.976562 -28.296875 58.078125 -30.96875 58.078125 -33.71875 Z M 58.078125 -33.71875 "/></g></g><g transform="translate(161.918936, 416.778743)"><g><path d="M 21.609375 0 L 21.609375 -59.921875 L 0.984375 -60.25 L 1.640625 -67.0625 L 55.921875 -67.0625 L 55.265625 -60.4375 L 35.296875 -59.921875 L 35.296875 0 Z M 21.609375 0 "/></g></g><g transform="translate(218.825131, 416.778743)"><g><path d="M 26.125 -27.640625 L 21.546875 -27.640625 L 21.546875 0 L 7.859375 0 L 7.859375 -66.921875 C 9.210938 -67.015625 10.6875 -67.101562 12.28125 -67.1875 C 13.875 -67.269531 15.507812 -67.34375 17.1875 -67.40625 C 18.863281 -67.476562 20.566406 -67.535156 22.296875 -67.578125 C 24.023438 -67.617188 25.671875 -67.640625 27.234375 -67.640625 C 35.359375 -67.640625 41.515625 -66.15625 45.703125 -63.1875 C 49.898438 -60.21875 52 -55.59375 52 -49.3125 C 52 -46.519531 51.632812 -44.070312 50.90625 -41.96875 C 50.1875 -39.875 49.238281 -38.050781 48.0625 -36.5 C 46.882812 -34.957031 45.53125 -33.660156 44 -32.609375 C 42.476562 -31.554688 40.882812 -30.660156 39.21875 -29.921875 C 41.226562 -26.472656 43.140625 -23.21875 44.953125 -20.15625 C 46.765625 -17.101562 48.566406 -14.429688 50.359375 -12.140625 C 52.148438 -9.847656 53.984375 -8.035156 55.859375 -6.703125 C 57.734375 -5.378906 59.738281 -4.71875 61.875 -4.71875 L 62.34375 -4.71875 L 62.34375 -0.453125 C 61.25 -0.109375 60.003906 0.171875 58.609375 0.390625 C 57.210938 0.609375 55.640625 0.71875 53.890625 0.71875 C 52.234375 0.71875 50.71875 0.628906 49.34375 0.453125 C 47.96875 0.285156 46.675781 -0.046875 45.46875 -0.546875 C 44.269531 -1.054688 43.09375 -1.789062 41.9375 -2.75 C 40.78125 -3.707031 39.59375 -4.972656 38.375 -6.546875 C 37.15625 -8.117188 35.84375 -10.050781 34.4375 -12.34375 C 33.039062 -14.632812 31.515625 -17.375 29.859375 -20.5625 Z M 23.90625 -34.25 C 25.820312 -34.25 27.664062 -34.476562 29.4375 -34.9375 C 31.207031 -35.394531 32.59375 -35.972656 33.59375 -36.671875 C 34.113281 -37.015625 34.632812 -37.4375 35.15625 -37.9375 C 35.6875 -38.445312 36.15625 -39.148438 36.5625 -40.046875 C 36.976562 -40.941406 37.304688 -42.0625 37.546875 -43.40625 C 37.796875 -44.757812 37.921875 -46.460938 37.921875 -48.515625 C 37.921875 -50.785156 37.644531 -52.707031 37.09375 -54.28125 C 36.550781 -55.851562 35.742188 -57.109375 34.671875 -58.046875 C 33.597656 -58.984375 32.273438 -59.660156 30.703125 -60.078125 C 29.140625 -60.492188 27.3125 -60.703125 25.21875 -60.703125 C 24.726562 -60.703125 24.132812 -60.679688 23.4375 -60.640625 C 22.738281 -60.597656 22.109375 -60.53125 21.546875 -60.4375 L 21.546875 -34.25 Z M 23.90625 -34.25 "/></g></g><g transform="translate(280.184284, 416.778743)"><g><path d="M 48.265625 0 L 7.859375 0 L 7.859375 -67.0625 L 46.828125 -67.0625 L 46.171875 -60.25 L 21.546875 -59.921875 L 21.546875 -38.109375 L 44.71875 -37.84375 L 44.0625 -31.625 L 21.546875 -31.109375 L 21.546875 -7.140625 L 48.921875 -6.609375 Z M 48.265625 0 "/></g></g><g transform="translate(332.244611, 416.778743)"><g/></g><g transform="translate(352.544865, 416.778743)"><g><path d="M 50.03125 0 L 42.171875 -22.59375 L 16.953125 -22.265625 L 8.78125 0 L 0.125 0 L 26.71875 -66.46875 L 39.9375 -68.75 L 64.703125 0 Z M 40.015625 -28.9375 L 29.921875 -57.890625 L 19.3125 -28.9375 Z M 40.015625 -28.9375 "/></g></g><g transform="translate(417.374707, 416.778743)"><g><path d="M 7.859375 0 L 7.859375 -67.0625 L 21.546875 -67.0625 L 21.546875 -7.078125 L 47.015625 -7.078125 L 46.359375 0 Z M 7.859375 0 "/></g></g><g transform="translate(466.619193, 416.778743)"><g><path d="M 7.859375 0 L 7.859375 -67.0625 L 21.546875 -67.0625 L 21.546875 -7.078125 L 47.015625 -7.078125 L 46.359375 0 Z M 7.859375 0 "/></g></g><g transform="translate(515.863678, 416.778743)"><g><path d="M 21.546875 0 L 7.859375 0 L 7.859375 -67.0625 L 21.546875 -67.0625 Z M 21.546875 0 "/></g></g><g transform="translate(545.266303, 416.778743)"><g><path d="M 50.03125 0 L 42.171875 -22.59375 L 16.953125 -22.265625 L 8.78125 0 L 0.125 0 L 26.71875 -66.46875 L 39.9375 -68.75 L 64.703125 0 Z M 40.015625 -28.9375 L 29.921875 -57.890625 L 19.3125 -28.9375 Z M 40.015625 -28.9375 "/></g></g><g transform="translate(610.096146, 416.778743)"><g><path d="M 62.859375 0.328125 L 15.515625 -46.6875 L 15.328125 -46.6875 C 15.410156 -42.757812 15.492188 -39.132812 15.578125 -35.8125 C 15.628906 -34.414062 15.664062 -33.007812 15.6875 -31.59375 C 15.707031 -30.175781 15.726562 -28.863281 15.75 -27.65625 C 15.769531 -26.457031 15.789062 -25.410156 15.8125 -24.515625 C 15.832031 -23.628906 15.84375 -22.988281 15.84375 -22.59375 L 15.84375 0 L 7.859375 0 L 7.859375 -67.515625 L 13.8125 -67.515625 L 61.234375 -20.625 L 61.296875 -20.625 C 61.203125 -24.25 61.132812 -27.632812 61.09375 -30.78125 C 61.09375 -32.132812 61.082031 -33.5 61.0625 -34.875 C 61.039062 -36.25 61.019531 -37.554688 61 -38.796875 C 60.976562 -40.046875 60.96875 -41.191406 60.96875 -42.234375 C 60.96875 -43.285156 60.96875 -44.140625 60.96875 -44.796875 L 60.96875 -67.0625 L 68.953125 -67.0625 L 68.953125 0.328125 Z M 62.859375 0.328125 "/></g></g><g transform="translate(686.909686, 416.778743)"><g><path d="M 34.765625 0.921875 C 29.523438 0.921875 25.0625 0.0820312 21.375 -1.59375 C 17.6875 -3.28125 14.695312 -5.660156 12.40625 -8.734375 C 10.113281 -11.816406 8.441406 -15.492188 7.390625 -19.765625 C 6.347656 -24.046875 5.828125 -28.804688 5.828125 -34.046875 C 5.828125 -38.285156 6.335938 -42.0625 7.359375 -45.375 C 8.390625 -48.695312 9.773438 -51.613281 11.515625 -54.125 C 13.265625 -56.632812 15.304688 -58.757812 17.640625 -60.5 C 19.984375 -62.25 22.441406 -63.671875 25.015625 -64.765625 C 27.585938 -65.859375 30.226562 -66.644531 32.9375 -67.125 C 35.644531 -67.601562 38.265625 -67.84375 40.796875 -67.84375 C 42.367188 -67.84375 44.035156 -67.785156 45.796875 -67.671875 C 47.566406 -67.566406 49.28125 -67.4375 50.9375 -67.28125 C 52.601562 -67.132812 54.15625 -66.953125 55.59375 -66.734375 C 57.03125 -66.515625 58.207031 -66.296875 59.125 -66.078125 L 56.578125 -56.515625 C 55.660156 -56.773438 54.359375 -57.078125 52.671875 -57.421875 C 50.992188 -57.773438 49.191406 -58.09375 47.265625 -58.375 C 45.347656 -58.65625 43.460938 -58.894531 41.609375 -59.09375 C 39.753906 -59.289062 38.195312 -59.390625 36.9375 -59.390625 C 35.539062 -59.390625 34.316406 -59.34375 33.265625 -59.25 C 32.210938 -59.164062 31.25 -59.015625 30.375 -58.796875 C 29.507812 -58.578125 28.671875 -58.28125 27.859375 -57.90625 C 27.054688 -57.539062 26.238281 -57.054688 25.40625 -56.453125 C 23.3125 -55.046875 21.90625 -52.367188 21.1875 -48.421875 C 20.46875 -44.472656 20.109375 -39.570312 20.109375 -33.71875 C 20.109375 -24.769531 21.503906 -17.972656 24.296875 -13.328125 C 27.085938 -8.679688 31.601562 -6.359375 37.84375 -6.359375 C 39.59375 -6.359375 41.40625 -6.421875 43.28125 -6.546875 C 45.15625 -6.679688 47.019531 -6.878906 48.875 -7.140625 C 50.738281 -7.398438 52.550781 -7.722656 54.3125 -8.109375 C 56.082031 -8.503906 57.753906 -8.96875 59.328125 -9.5 L 59.328125 -3.921875 C 57.578125 -3.140625 55.6875 -2.453125 53.65625 -1.859375 C 51.632812 -1.273438 49.550781 -0.773438 47.40625 -0.359375 C 45.269531 0.0546875 43.128906 0.375 40.984375 0.59375 C 38.847656 0.8125 36.773438 0.921875 34.765625 0.921875 Z M 34.765625 0.921875 "/></g></g><g transform="translate(750.102411, 416.778743)"><g><path d="M 48.265625 0 L 7.859375 0 L 7.859375 -67.0625 L 46.828125 -67.0625 L 46.171875 -60.25 L 21.546875 -59.921875 L 21.546875 -38.109375 L 44.71875 -37.84375 L 44.0625 -31.625 L 21.546875 -31.109375 L 21.546875 -7.140625 L 48.921875 -6.609375 Z M 48.265625 0 "/></g></g></g></svg>