<?xml version="1.0" standalone="no"?>
<!DOCTYPE svg PUBLIC "-//W3C//DTD SVG 1.1//EN" "http://www.w3.org/Graphics/SVG/1.1/DTD/svg11.dtd">
<svg xmlns="http://www.w3.org/2000/svg" xmlns:xlink="http://www.w3.org/1999/xlink" version="1.1" id="Layer_1" x="0px" y="0px" viewBox="0 0 50 50" style="enable-background:new 0 0 50 50;" xml:space="preserve" width="50" height="50">
<style type="text/css">
	.st0{fill:#192480;}
	.st1{font-family:'Arial-BoldMT';}
	.st2{font-size:4.698px;}
	.st3{fill:#F94C66;}
	.st4{fill:#E5D834;}
</style>
<text transform="matrix(1 0 0 1 4.4346 32.0461)" class="st0 st1 st2">N</text>
<text transform="matrix(1 0 0 1 7.5283 32.0461)" class="st0 st1 st2">O</text>
<text transform="matrix(1 0 0 1 10.6426 32.0461)" class="st0 st1 st2">TRE ALLIANCE</text>
<g>
	<path class="st0" d="M36.1,22.5c-0.2,0.1-0.5,0.3-0.7,0.4c-0.1-0.1-0.1-0.2-0.1-0.3c-0.1-1.4-0.5-2.6-1-3.9c-1.5-3.1-4.2-5.3-7.5-6   c-0.8-0.2-1.7-0.3-2.5-0.3c-5.1,0.1-9.2,3.7-10.4,8.5c-0.1,0.6-0.2,1.1-0.3,1.7c0,0.1,0,0.3,0,0.4c-0.3,0.2-0.6,0.4-0.8,0.4   c-0.1-0.4,0.1-1.9,0.3-2.8c0.4-1.6,1.1-3.1,2.1-4.4c1-1.3,2.2-2.4,3.7-3.2c1.3-0.8,2.8-1.2,4.3-1.4C30.1,10.9,35.6,16.4,36.1,22.5   L36.1,22.5z"/>
	<polygon class="st0" points="12.8,23.1 12.7,23.5 12.8,24 19.2,21.3 20.2,21.6 20.2,24.1 21.5,22.7 23,21.9 23.5,22.6 23,25.4    23.5,25.4 24.6,24.8 25.4,23.2 26.1,22 27.7,21.6 28.3,22.2 28.7,23.2 28.7,24.3 28.9,25.5 33.4,24.9 35.7,23.4 36.3,23.1    36.1,22.4 34.5,18.6 33.9,17.3 33.5,17 32.3,15.4 30.1,13.7 27.3,12.5 25.1,12.3 22.1,12.4 19.8,13.2 18.2,14.2 16.8,15.4    15.5,16.5 13.9,19.5 13.3,22.2  "/>
	<polygon class="st3" points="24.6,32.1 24.6,32.1 24.6,32.1  "/>
	<path class="st4" d="M19.7,26h-1c0-0.1,0-0.2,0-0.3c0.2-0.6,0.4-1.2,0.6-1.8c0.1-0.3,0.2-0.7,0.2-1c0-0.2,0-0.4,0-0.6   c0,0,0-0.1,0-0.1c0-0.2-0.2-0.4-0.4-0.4c-0.2,0-0.3,0-0.5,0c-0.6,0.1-1.1,0.3-1.6,0.5c-0.8,0.3-1.5,0.7-2.2,1.1   c-0.9,0.5-1.8,1-2.7,1.5c-0.9,0.5-1.8,0.9-2.7,1.3c-0.5,0.2-1.1,0.4-1.6,0.5c-0.7,0.1-1.3,0.1-2,0c-0.6-0.1-1.1-0.5-1.6-0.9   c-0.1-0.1-0.2-0.3-0.3-0.5c-0.1-0.3,0.1-0.6,0.4-0.7c0.2,0,0.4,0,0.5,0.2c0.1,0,0.1,0.1,0.2,0.2c0.5,0.5,1.2,0.8,1.9,0.9   c0.6,0.1,1.2,0,1.8-0.2c0.7-0.2,1.4-0.5,2-0.8c0.9-0.4,1.8-0.9,2.7-1.4c1-0.6,2.1-1.1,3.1-1.6c0.6-0.3,1.3-0.5,2-0.7   c0.3-0.1,0.6-0.1,1-0.1c0.2,0,0.3,0,0.5,0.1c0.1,0,0.1,0,0.2,0c0.4,0.1,0.6,0.5,0.6,0.9c0,0.3-0.1,0.7-0.2,1c0,0.2-0.1,0.4-0.1,0.5   c0,0,0,0.1,0,0.2c0.1-0.1,0.1-0.1,0.2-0.2c0.2-0.3,0.4-0.5,0.6-0.8c0.2-0.3,0.5-0.5,0.7-0.8c0.2-0.2,0.4-0.4,0.7-0.5   c0.3-0.1,0.5-0.2,0.8-0.2c0.3,0,0.5,0.2,0.7,0.5c0.1,0.2,0.1,0.4,0.1,0.6c0,0.3-0.1,0.6-0.2,0.8c-0.1,0.4-0.2,0.7-0.4,1   c-0.1,0.2-0.1,0.4-0.1,0.6c0,0.1,0,0.2,0,0.2c0,0.1,0.1,0.1,0.1,0.1c0.1,0,0.1-0.1,0.2-0.1c0.2-0.2,0.5-0.5,0.6-0.7   c0-0.1,0-0.1,0-0.2c0-0.3,0.1-0.5,0.1-0.8c0.2-0.7,0.6-1.3,1.3-1.7c0.5-0.3,1-0.4,1.5-0.4c0.5,0,0.8,0.3,1,0.8   c0,0.1,0.1,0.1,0.1,0.3c0,0,0.1-0.1,0.1-0.1c0-0.2,0.1-0.4,0.1-0.6c0,0,0-0.1,0-0.1c0.2,0,0.9,0,1.1,0c0,0.1,0,0.1,0,0.2   c-0.2,0.7-0.4,1.4-0.6,2.2c-0.1,0.2-0.1,0.5-0.1,0.8c0,0.4,0.1,0.5,0.4,0.6c0.2,0,0.5,0,0.7,0c0.5-0.1,1.1-0.2,1.6-0.4   c1.1-0.4,2.2-0.9,3.3-1.5c0.9-0.5,1.8-1,2.7-1.4c0.7-0.4,1.5-0.7,2.3-0.9c0.5-0.1,1-0.2,1.5-0.3c1,0,2,0.2,2.7,0.9   c0.1,0.1,0.2,0.1,0.2,0.2c0,0.1,0.1,0.1,0.1,0.2c0.1,0.2,0.1,0.4,0,0.6c-0.2,0.2-0.4,0.2-0.6,0.2c-0.1,0-0.2-0.1-0.3-0.2   c0,0-0.1-0.1-0.1-0.1c-0.6-0.6-1.3-0.9-2.2-0.9c-0.6,0-1.1,0.1-1.7,0.2c-0.7,0.2-1.4,0.5-2.1,0.8c-0.9,0.4-1.7,0.9-2.6,1.4   c-1,0.6-2,1.1-3.1,1.6c-0.6,0.3-1.3,0.5-1.9,0.7c-0.2,0-0.5,0.1-0.7,0.1c-0.2,0-0.5,0-0.7,0c-0.5-0.1-0.8-0.5-0.8-1   c0-0.1,0-0.2,0-0.3C28,25,28,25,27.9,25c-0.3,0.5-0.7,0.9-1.3,1c-0.3,0.1-0.6,0.1-0.9,0c-0.5-0.1-0.8-0.4-1.1-0.9   c0-0.1-0.1-0.1-0.1-0.2c0,0,0,0,0,0c0,0.1-0.1,0.1-0.2,0.2c-0.3,0.3-0.6,0.6-0.9,0.8c-0.2,0.1-0.4,0.2-0.6,0.1   c-0.2,0-0.4-0.1-0.5-0.4c-0.1-0.2-0.1-0.4-0.1-0.6c0-0.3,0.1-0.6,0.2-0.9c0.1-0.4,0.2-0.7,0.3-1.1c0-0.1,0-0.2,0.1-0.4   c0-0.1,0-0.2,0-0.3s-0.1-0.2-0.2-0.2c-0.1,0-0.2,0-0.3,0.1c-0.2,0.1-0.3,0.2-0.4,0.3c-0.3,0.3-0.5,0.6-0.8,1   c-0.4,0.6-0.8,1.3-1.2,2C19.8,25.7,19.8,25.8,19.7,26L19.7,26z M25.8,24.2c0,0.1,0,0.2,0,0.3c0,0.2,0.1,0.4,0.1,0.5   c0.1,0.2,0.3,0.3,0.5,0.4c0.3,0.1,0.5,0,0.8-0.1c0.1-0.1,0.3-0.2,0.4-0.4c0.5-0.6,0.6-1.2,0.6-1.9c0-0.2,0-0.3-0.1-0.5   c-0.1-0.4-0.4-0.6-0.9-0.6c0,0-0.1,0-0.1,0c-0.2,0.1-0.4,0.2-0.6,0.4C26.1,22.8,25.8,23.5,25.8,24.2L25.8,24.2z"/>
</g>
</svg>